<svg width="1037" height="783" viewBox="0 0 1037 783" fill="none" xmlns="http://www.w3.org/2000/svg">
<path d="M651.799 322.679C668.144 308.503 685.157 293.987 701.514 281.487C734.883 254.47 769.755 226.272 800.743 194.577C853.883 139.454 885.036 83.2914 891.853 26.4385C892.017 25.9347 892.85 25.0917 894.023 24.917C894.528 25.0816 895.373 25.9144 895.549 27.0864C888.403 84.9469 857.427 142.282 803.617 197.744C772.63 229.438 737.758 257.637 704.388 284.653C688.032 297.154 671.018 311.67 654.838 325.342C654.169 325.682 653.16 325.353 652.656 325.188C651.306 324.191 651.635 323.183 651.799 322.679Z" fill="#C6EDCC"/>
<path d="M816.056 80.8614C816.221 80.3577 817.054 79.5147 818.063 79.8437L818.567 80.0082L854.823 129.729C855.164 130.397 854.835 131.404 854.166 131.744C853.497 132.083 852.488 131.754 852.148 131.086L815.892 81.3652C815.564 82.3727 815.728 81.8689 816.056 80.8614ZM825.197 68.237C825.361 67.7332 826.194 66.8902 827.203 67.2193L827.708 67.3838L862.779 115.603C863.119 116.271 862.79 117.279 862.121 117.618C861.453 117.957 860.444 117.628 860.103 116.96L825.032 68.7407C825.713 70.0773 824.868 69.2445 825.197 68.237ZM834.841 55.7771C835.006 55.2733 835.839 54.4303 836.848 54.7594L837.352 54.9239L870.558 100.306C870.898 100.974 870.57 101.981 869.901 102.321C869.232 102.66 868.223 102.331 867.883 101.663L834.677 56.2808C834.349 57.2883 834.513 56.7846 834.841 55.7771ZM843.982 43.1526C844.146 42.6489 844.979 41.8059 845.988 42.1349L846.493 42.2995L877.492 84.1753C877.833 84.8435 877.504 85.8511 877.34 86.3548C876.671 86.694 875.662 86.365 875.157 86.2005L844.158 44.3247C843.489 44.6639 843.653 44.1602 843.982 43.1526ZM854.131 30.8572C854.295 30.3535 855.129 29.5105 856.138 29.8395L856.642 30.0041L885.272 68.8777C885.612 69.546 885.283 70.5535 884.614 70.8927C883.946 71.232 882.937 70.9029 882.596 70.2347L853.967 31.361C853.638 32.3685 853.803 31.8647 854.131 30.8572ZM862.438 19.0758C862.603 18.572 863.436 17.7291 864.445 18.0581L864.949 18.2226L889.003 50.5882C889.343 51.2565 889.014 52.264 888.346 52.6032C887.677 52.9425 886.668 52.6134 886.328 51.9451L862.274 19.5796L862.438 19.0758ZM871.579 6.45138C871.743 5.94762 872.576 5.10463 873.585 5.43368L874.09 5.59821L893.062 31.2912C893.403 31.9595 893.074 32.967 892.405 33.3062C891.737 33.6454 890.728 33.3164 890.387 32.6481L871.414 6.95512C872.424 7.28417 871.579 6.45138 871.579 6.45138Z" fill="#C6EDCC"/>
<path d="M852.814 130.746C852.979 130.243 853.307 129.235 853.812 129.4L914.508 122.998C915.013 123.163 916.022 123.492 916.362 124.16C916.198 124.664 915.869 125.671 915.201 126.01L854.504 132.412C853.507 133.759 852.826 132.422 852.814 130.746C852.486 131.754 852.486 131.754 852.814 130.746ZM861.931 114.77C862.095 114.267 862.424 113.259 862.928 113.424L917.418 107.227C917.923 107.392 918.932 107.721 919.272 108.389C919.108 108.893 918.779 109.9 918.111 110.24L863.621 116.436C862.623 117.783 861.943 116.446 861.931 114.77C861.603 115.778 861.603 115.778 861.931 114.77ZM869.206 99.3083C869.37 98.8046 869.699 97.7971 870.203 97.9616L919.835 92.9678C920.34 93.1324 921.349 93.4614 921.689 94.1297C921.525 94.6334 921.196 95.6409 920.528 95.9802L870.895 100.974C870.227 101.313 869.722 101.149 869.206 99.3083ZM877.314 83.0033C877.478 82.4995 877.806 81.492 878.311 81.6565L923.414 76.8579C923.919 77.0224 924.928 77.3514 925.268 78.0197C925.104 78.5235 924.775 79.531 924.106 79.8702L879.003 84.6689C878.17 85.5119 877.325 84.6791 877.314 83.0033C877.149 83.507 877.149 83.507 877.314 83.0033ZM882.91 67.5514C883.075 67.0476 883.403 66.0401 883.908 66.2047L926.5 62.2592C927.005 62.4237 928.014 62.7527 928.354 63.421C928.19 63.9248 927.861 64.9323 927.192 65.2715L884.6 69.217C883.767 70.06 883.427 69.3917 882.91 67.5514C882.582 68.5589 882.582 68.5589 882.91 67.5514ZM888.003 51.935C888.167 51.4313 888.496 50.4237 889 50.5883L929.914 46.6529C930.419 46.8175 931.428 47.1465 931.768 47.8148C931.604 48.3185 931.275 49.3261 930.607 49.6653L889.692 53.6006C888.695 54.9473 887.51 53.4463 888.003 51.935C887.674 52.9425 887.674 52.9425 888.003 51.935ZM890.584 37.1718C890.748 36.668 891.077 35.6605 891.581 35.825L932.66 31.386C933.165 31.5505 934.174 31.8795 934.514 32.5478C934.35 33.0516 934.021 34.0591 933.352 34.3983L892.274 38.8374C891.605 39.1766 890.091 38.683 890.584 37.1718ZM733.944 72.478C734.108 71.9742 734.941 71.1313 735.95 71.4603C736.454 71.6248 736.454 71.6248 737.299 72.4576C761.998 125.097 767.149 189.754 752.412 265.76C743.823 309.217 730.024 351.532 716.05 392.675C709.479 412.826 702.744 433.48 696.678 453.794C696.514 454.298 695.681 455.141 694.671 454.812C694.167 454.648 693.322 453.815 693.651 452.807C699.717 432.492 706.452 411.839 713.023 391.688C726.328 350.884 740.455 307.561 749.22 265.276C763.629 190.278 759.323 126.454 733.791 74.6575C733.779 72.9817 733.944 72.478 733.944 72.478Z" fill="#C6EDCC"/>
<path d="M700.837 160.326C701.001 159.823 701.834 158.98 702.843 159.309L759.879 181.251C760.384 181.416 761.229 182.249 760.9 183.256C760.736 183.76 759.903 184.603 758.894 184.274L701.858 162.331C700.849 162.002 700.673 160.83 700.837 160.326ZM701.729 143.898C701.893 143.394 702.726 142.551 703.735 142.88L760.267 164.658C760.771 164.822 761.616 165.655 761.287 166.663C761.123 167.167 760.29 168.01 759.281 167.68L702.75 145.902C702.245 145.738 701.4 144.905 701.729 143.898ZM702.797 128.641C702.961 128.137 703.794 127.294 704.803 127.623L757.122 146.913C757.627 147.077 758.471 147.91 758.143 148.918C757.814 149.925 757.145 150.265 756.136 149.935L703.817 130.646C702.808 130.317 702.468 129.648 702.797 128.641ZM703.36 113.219C703.524 112.716 704.357 111.873 705.366 112.202L754.658 130.505C755.163 130.669 756.007 131.502 755.679 132.509C755.515 133.013 754.681 133.856 753.672 133.527L704.381 115.224C703.876 115.06 703.031 114.227 703.36 113.219ZM704.592 97.459C704.756 96.9552 705.589 96.1122 706.598 96.4412L751.349 113.263C751.854 113.428 752.699 114.261 752.37 115.268C752.206 115.772 751.373 116.615 750.364 116.286L705.613 99.4638C704.603 99.1347 704.427 97.9627 704.592 97.459ZM705.659 82.2022C705.824 81.6984 706.657 80.8554 707.666 81.1844L746.022 95.3639C746.527 95.5285 747.372 96.3613 747.043 97.3688C746.715 98.3763 746.046 98.7155 745.037 98.3865L706.68 84.207C705.671 83.878 705.495 82.7059 705.659 82.2022ZM706.551 65.7733C706.716 65.2696 707.549 64.4266 708.558 64.7556L738.337 76.1382C738.841 76.3028 739.686 77.1356 739.358 78.1431C739.029 79.1506 738.36 79.4898 737.351 79.1608L707.572 67.7782C706.739 68.6212 706.058 67.2846 706.551 65.7733Z" fill="#C6EDCC"/>
<path d="M758.702 181.426L806.245 141.755C806.914 141.415 807.923 141.744 808.428 141.909C808.768 142.577 808.44 143.585 808.275 144.088L761.06 182.752C760.391 183.092 759.382 182.762 758.878 182.598C758.209 182.937 758.373 182.433 758.702 181.426ZM757.399 163.167L800.109 128.05C800.778 127.711 801.787 128.04 802.291 128.204C802.632 128.872 802.303 129.88 802.139 130.384L759.593 164.997C758.925 165.336 757.916 165.007 757.411 164.843C757.411 164.843 757.235 163.671 757.399 163.167ZM755.264 145.751L794.805 113.502C795.474 113.163 796.483 113.492 796.988 113.656C797.328 114.325 797 115.332 796.835 115.836L757.458 147.581C756.789 147.92 755.78 147.591 755.276 147.427C754.935 146.759 755.264 145.751 755.264 145.751ZM753.293 127.831L788.657 98.1215C789.326 97.7822 790.335 98.1113 790.84 98.2758C791.18 98.9441 790.851 99.9516 790.687 100.455L755.651 129.158C754.982 129.497 753.973 129.168 753.469 129.003C753.304 129.507 752.964 128.839 753.293 127.831ZM748.987 111.937L782.521 84.4167C783.189 84.0775 784.198 84.4065 784.703 84.5711C785.043 85.2393 784.715 86.2468 784.55 86.7506L751.181 113.767C750.512 114.106 749.503 113.777 748.998 113.613C749.503 113.777 748.822 112.441 748.987 111.937ZM745.021 96.7106L776.548 70.2082C777.217 69.8689 778.226 70.198 778.731 70.3625C779.071 71.0308 778.742 72.0383 778.578 72.542L747.215 98.5407C746.546 98.8799 745.537 98.5509 745.032 98.3864C744.856 97.2143 744.856 97.2143 745.021 96.7106ZM739.048 82.502L771.585 56.3287C772.254 55.9895 773.263 56.3185 773.768 56.483C774.272 56.6476 773.779 58.1588 773.615 58.6626L741.243 84.3322C740.574 84.6714 739.565 84.3424 739.06 84.1778C738.884 83.0058 738.884 83.0058 739.048 82.502ZM639.514 317.559C639.678 317.055 639.678 317.055 639.514 317.559C655.377 306.57 671.077 296.084 686.94 285.094C718.503 263.619 751.404 241.466 786.686 223.99C848.051 193.285 904.184 182.051 955.259 191.461C955.764 191.625 956.609 192.458 956.28 193.466C956.116 193.969 955.283 194.812 954.274 194.483C904.712 185.567 848.075 196.636 787.883 227.167C753.105 244.807 720.709 267.125 688.642 288.436C672.942 298.922 657.243 309.407 641.544 319.893C640.875 320.232 639.866 319.903 639.526 319.235C639.69 318.731 639.514 317.559 639.514 317.559Z" fill="#C6EDCC"/>
<path d="M855.633 197.428C855.797 196.925 856.63 196.082 857.64 196.411L858.144 196.575L890.329 239.952C890.505 241.124 890.34 241.628 890.012 242.635C889.683 243.643 888.334 242.646 887.829 242.481L855.645 199.104C855.14 198.94 855.305 198.436 855.633 197.428ZM869.197 193.492C869.361 192.988 870.194 192.145 871.203 192.474L871.708 192.638L902.883 235.686C903.224 236.355 902.895 237.362 902.731 237.866C902.567 238.37 901.053 237.876 900.548 237.712L869.373 194.664C868.704 195.003 868.868 194.499 869.197 193.492ZM884.122 192.228C884.286 191.724 885.119 190.881 886.128 191.21L886.633 191.375L916.447 231.749C916.787 232.418 916.459 233.425 916.295 233.929C916.13 234.433 914.617 233.939 914.112 233.775L884.298 193.4C883.629 193.739 883.958 192.732 884.122 192.228ZM899.211 190.46C899.375 189.957 900.208 189.114 901.217 189.443L901.722 189.607L929.33 226.476C929.671 227.144 929.342 228.152 929.178 228.656C928.509 228.995 927.5 228.666 926.996 228.501L899.387 191.632C899.047 190.964 899.047 190.964 899.211 190.46ZM914.3 188.693C914.464 188.189 915.297 187.346 916.306 187.675L916.811 187.84L942.049 221.706C942.39 222.375 942.061 223.382 941.897 223.886C941.733 224.39 940.219 223.896 939.715 223.732L914.476 189.865C914.816 190.533 913.971 189.7 914.3 188.693ZM931.419 189.259C931.583 188.756 932.416 187.913 933.425 188.242L933.93 188.406L955.613 217.77C955.954 218.438 955.625 219.445 955.461 219.949C954.792 220.288 953.783 219.959 953.278 219.795L931.595 190.431C931.091 190.267 931.091 190.267 931.419 189.259ZM948.714 190.998C948.878 190.494 949.711 189.651 950.72 189.98L951.73 190.309L968.837 213.165C969.177 213.833 968.848 214.84 968.684 215.344C968.015 215.683 967.006 215.354 966.502 215.19L949.395 192.334C948.55 191.502 948.55 191.502 948.714 190.998Z" fill="#C6EDCC"/>
<path d="M854.623 197.099L875.92 147.197C876.084 146.693 876.917 145.85 877.926 146.179C878.43 146.344 879.275 147.177 878.947 148.184L857.651 198.086C857.486 198.59 856.653 199.433 855.644 199.104C854.635 198.775 854.295 198.107 854.623 197.099ZM870.874 193.481L890.363 149.12C890.528 148.617 891.361 147.774 892.37 148.103C892.874 148.267 893.719 149.1 893.391 150.107L873.901 194.468C873.737 194.972 872.904 195.815 871.895 195.486C870.886 195.157 870.381 194.993 870.874 193.481ZM886.128 191.21L903.458 150.046C903.622 149.543 904.455 148.7 905.464 149.029C906.473 149.358 906.814 150.026 906.485 151.033L889.319 191.693C889.155 192.197 888.322 193.04 887.313 192.711C886.644 193.05 885.963 191.714 886.128 191.21ZM902.05 188.6L917.902 151.97C918.066 151.466 918.899 150.623 919.908 150.952C920.412 151.117 921.257 151.949 920.929 152.957L905.077 189.587C904.913 190.091 904.08 190.934 903.071 190.604C902.061 190.275 901.557 190.111 902.05 188.6ZM915.977 188.683L930.667 153.903C930.832 153.399 931.665 152.556 932.674 152.886C933.178 153.05 934.023 153.883 933.695 154.89L919.004 189.67C918.84 190.174 918.007 191.017 916.998 190.687C915.989 190.358 915.813 189.186 915.977 188.683ZM931.078 188.591L945.276 155.323C945.44 154.819 946.273 153.976 947.282 154.305C947.786 154.47 948.631 155.302 948.303 156.31L934.105 189.578C933.941 190.082 933.108 190.925 932.099 190.596C931.09 190.267 930.914 189.095 931.078 188.591ZM944.513 190.185L958.875 156.413C959.039 155.91 959.872 155.067 960.881 155.396C961.385 155.56 962.23 156.393 961.902 157.4L947.54 191.172C947.376 191.676 946.543 192.519 945.534 192.19C944.525 191.861 944.184 191.193 944.513 190.185Z" fill="#C6EDCC"/>
<path d="M420.734 540.581C420.734 540.581 420.23 540.417 420.065 540.92C398.405 538.873 376.746 536.826 356.095 535.108C313.104 530.006 268.775 525.583 225.15 525.848C148.813 527.15 87.1894 544.953 42.1332 580.419C41.4644 580.758 40.4553 580.429 39.9507 580.265C39.6105 579.597 39.939 578.589 40.1033 578.085C86.3329 542.444 149.294 523.962 226.136 522.826C269.925 522.057 314.594 527.148 358.09 532.415C378.74 534.133 400.072 537.187 422.06 538.227C422.564 538.391 423.574 538.721 423.585 540.396C421.731 539.234 421.567 539.738 420.734 540.581Z" fill="#77D683"/>
<path d="M134.018 594.776C133.349 595.116 132.34 594.787 132 594.118L131.66 593.45L140.8 532.896C140.964 532.392 141.797 531.549 142.806 531.878C143.311 532.043 144.156 532.876 143.827 533.883L134.687 594.437C135.015 593.43 134.182 594.273 134.018 594.776ZM118.424 596.379C117.756 596.719 116.747 596.389 116.406 595.721L116.066 595.053L124.878 535.507C125.042 535.003 125.875 534.16 126.884 534.489C127.389 534.653 128.234 535.486 127.905 536.494L119.093 596.04C119.762 595.701 118.424 596.379 118.424 596.379ZM103.171 598.651C102.502 598.99 101.493 598.661 101.153 597.992L100.813 597.324L108.979 541.469C109.143 540.965 109.976 540.122 110.986 540.451C111.49 540.615 112.335 541.448 112.006 542.456L103.84 598.311C103.84 598.311 103.676 598.815 103.171 598.651ZM87.4131 600.757C86.7443 601.096 85.7352 600.767 85.395 600.099L85.0547 599.431L92.9162 547.934C93.0804 547.431 93.9135 546.588 94.9226 546.917C95.4271 547.081 96.2719 547.914 95.9433 548.921L88.0819 600.418C88.5865 600.583 88.4222 601.086 87.4131 600.757ZM71.9955 603.532C71.3267 603.871 70.3176 603.542 69.9773 602.874L69.6371 602.206L76.5246 555.408C76.6889 554.904 77.522 554.061 78.531 554.39C79.0356 554.554 79.8803 555.387 79.5518 556.395L72.6642 603.193C72.8285 602.689 72.5 603.697 71.9955 603.532ZM56.2376 605.639C55.5688 605.978 54.5596 605.649 54.2194 604.981L53.5389 603.644L59.8045 563.888C59.9688 563.385 60.8019 562.542 61.811 562.871C62.3155 563.035 63.1602 563.868 62.8317 564.876L56.5661 604.631C57.5752 604.961 57.2466 605.968 56.2376 605.639ZM41.4887 608.075C40.8199 608.414 39.8108 608.085 39.4705 607.417L39.1303 606.748L43.941 574.878C44.1053 574.374 44.9383 573.531 45.9474 573.86C46.4519 574.025 47.2967 574.857 46.9682 575.865L42.1575 607.735C41.6529 607.571 41.653 607.571 41.4887 608.075Z" fill="#77D683"/>
<path d="M143.322 533.719C142.653 534.058 142.653 534.058 141.808 533.225L94.0534 494.803C93.5489 494.638 93.0327 492.798 94.206 492.623C94.8748 492.284 96.2124 491.606 96.3884 492.778L144.143 531.2C144.307 530.696 144.319 532.372 143.322 533.719C143.486 533.215 143.486 533.215 143.322 533.719ZM125.065 538.354C124.396 538.694 124.396 538.694 123.551 537.861L80.6891 503.263C80.1846 503.099 79.6683 501.258 80.8416 501.084C81.0059 500.58 82.8481 500.066 83.0241 501.238L125.886 535.836C127.059 535.661 126.567 537.172 125.065 538.354C126.238 538.18 126.238 538.18 125.065 538.354ZM108.826 543.648C108.157 543.987 108.157 543.987 107.312 543.155L68.4982 511.549C67.9936 511.385 67.4773 509.544 68.6507 509.369C68.8149 508.866 70.6571 508.352 70.8331 509.524L109.647 541.129C109.483 541.633 109.823 542.301 108.826 543.648ZM91.7536 549.785C91.0848 550.124 91.0848 550.124 90.24 549.291L54.9695 520.513C54.465 520.349 53.9488 518.508 55.1221 518.334C55.2864 517.83 57.1285 517.316 57.3045 518.488L92.575 547.266C93.4198 548.099 93.2555 548.603 91.7536 549.785C92.7627 550.114 92.9269 549.61 91.7536 549.785ZM77.2043 556.744C76.5355 557.084 76.5354 557.084 75.6906 556.251L42.45 529.806C41.9455 529.642 41.4293 527.802 42.6026 527.627C42.7669 527.123 44.609 526.609 44.785 527.781L78.0256 554.226C78.0256 554.226 78.2016 555.398 77.2043 556.744ZM62.4906 564.207C61.8218 564.547 61.8218 564.547 60.977 563.714L29.25 537.763C28.7454 537.599 28.2292 535.758 29.4025 535.584C29.5668 535.08 31.4089 534.566 31.5849 535.738L63.312 561.689C63.8165 561.853 63.488 562.861 62.4906 564.207C62.9952 564.372 62.9952 564.372 62.4906 564.207ZM50.6399 573.161C49.9711 573.501 49.971 573.501 49.1262 572.668L17.3992 546.717C16.8947 546.553 16.3785 544.712 17.5518 544.538C17.7161 544.034 19.5582 543.52 19.7342 544.692L51.4612 570.643C51.2969 571.146 51.1327 571.65 50.6399 573.161ZM185.808 658.48C185.139 658.819 184.13 658.49 183.79 657.822C183.79 657.822 183.45 657.153 183.778 656.146C203.526 600.723 245.801 551.531 309.431 508.745C346.345 484.557 385.968 464.038 425.263 444.527C443.99 435.029 463.221 425.695 481.771 415.024C482.44 414.685 483.449 415.014 483.789 415.682C484.13 416.35 483.801 417.358 483.132 417.697C464.242 427.699 445.515 437.198 426.624 447.2C388.503 466.536 348.034 486.222 311.801 511.748C247.502 554.872 205.896 603.725 185.808 658.48Z" fill="#77D683"/>
<path d="M271.286 620.589C270.617 620.929 269.608 620.599 269.268 619.931L244.041 563.776C243.701 563.107 244.029 562.1 244.698 561.761C245.367 561.421 246.376 561.75 246.716 562.419L271.943 618.574C271.779 619.078 271.45 620.086 271.286 620.589ZM259.107 630.551C258.438 630.89 257.429 630.561 257.089 629.893L232.038 574.909C231.698 574.241 232.026 573.233 232.695 572.894C233.364 572.555 234.373 572.884 234.713 573.552L259.764 628.536C260.104 629.204 259.776 630.212 259.107 630.551ZM247.432 640.677C246.763 641.016 245.754 640.687 245.414 640.019L222.405 589.045C222.065 588.376 222.393 587.369 223.062 587.03C223.731 586.691 224.74 587.02 225.08 587.688L248.089 638.662C248.429 639.33 248.101 640.338 247.432 640.677ZM235.757 650.803C235.089 651.142 234.079 650.813 233.739 650.145L212.267 603.016C211.927 602.348 212.255 601.34 212.924 601.001C213.593 600.662 214.602 600.991 214.942 601.659L236.414 648.788C237.259 649.621 236.766 651.132 235.757 650.803ZM223.754 661.936C223.085 662.276 222.076 661.947 221.736 661.278L202.306 618.159C201.965 617.491 202.294 616.483 202.963 616.144C203.631 615.805 204.64 616.134 204.981 616.802L224.411 659.921C225.584 659.747 225.092 661.258 223.754 661.936ZM212.584 672.227C211.915 672.566 210.906 672.237 210.566 671.569L193.693 634.3C193.353 633.631 193.681 632.624 194.35 632.285C195.019 631.945 196.028 632.274 196.368 632.943L213.241 670.212C213.581 670.88 213.417 671.384 212.584 672.227ZM200.909 682.353C200.24 682.692 199.231 682.363 198.891 681.695L185.433 652.784C185.093 652.116 185.421 651.108 186.09 650.769C186.759 650.43 187.768 650.759 188.108 651.427L201.566 680.338C201.907 681.006 201.578 682.014 200.909 682.353Z" fill="#77D683"/>
<path d="M245.214 563.601C245.214 563.601 244.709 563.436 244.545 563.94L184.095 557.603C183.59 557.439 182.581 557.11 182.569 555.434C182.558 553.758 183.062 553.923 184.74 553.913L245.19 560.249C245.695 560.414 246.704 560.743 246.716 562.418C246.387 563.426 246.223 563.93 245.214 563.601ZM233.234 578.086C233.234 578.086 232.73 577.921 232.565 578.425L177.489 572.726C176.984 572.562 175.975 572.233 175.963 570.557C176.128 570.053 176.456 569.046 178.134 569.035L233.211 574.734C233.715 574.899 234.724 575.228 234.736 576.904C234.067 577.243 234.067 577.243 233.234 578.086ZM222.087 591.728C222.087 591.728 221.583 591.563 221.418 592.067L172.385 586.667C171.88 586.502 170.871 586.173 170.859 584.498C171.024 583.994 171.352 582.986 173.03 582.976L222.064 588.376C222.568 588.541 223.577 588.87 223.589 590.546C223.425 591.049 223.096 592.057 222.087 591.728ZM211.95 605.699C211.95 605.699 211.445 605.534 211.281 606.038L165.943 601.286C165.439 601.121 164.429 600.792 164.418 599.117C164.406 597.441 164.91 597.605 166.588 597.595L211.926 602.347C212.431 602.512 213.44 602.841 213.451 604.517C212.278 604.692 211.95 605.699 211.95 605.699ZM202.821 619.999C202.821 619.999 202.317 619.835 202.152 620.339L160.17 615.566C159.666 615.401 158.657 615.072 158.645 613.396C158.633 611.721 159.138 611.885 160.816 611.875L202.798 616.648C203.302 616.812 204.311 617.141 204.323 618.817C203.15 618.992 202.821 619.999 202.821 619.999ZM194.361 633.96C194.361 633.96 193.857 633.796 193.692 634.299L153.224 630.02C152.719 629.856 151.71 629.527 151.699 627.851C151.863 627.347 152.192 626.34 153.869 626.33L194.338 630.609C194.842 630.773 195.851 631.102 195.863 632.778C195.194 633.117 195.03 633.621 194.361 633.96ZM189.257 647.901C189.257 647.901 188.753 647.736 188.588 648.24L148.12 643.961C147.615 643.796 146.606 643.467 146.595 641.792C146.583 640.116 147.087 640.28 148.765 640.27L189.234 644.549C189.738 644.714 190.747 645.043 190.759 646.719C189.926 647.562 189.762 648.065 189.257 647.901ZM425.509 551.613L424.84 551.952C406.689 547.705 387.868 543.797 369.388 540.558C331.583 533.246 292.769 525.605 255.434 513.43C190.853 492.372 142.641 460.488 112.979 417.934C112.639 417.265 112.967 416.258 113.636 415.919C114.305 415.579 115.314 415.908 115.654 416.577C145.14 457.959 192.179 490.017 256.76 511.076C294.095 523.251 332.405 530.727 370.714 538.203C389.03 541.947 408.014 545.351 426.166 549.598C426.671 549.762 427.515 550.595 427.187 551.603C426.178 551.274 426.013 551.777 425.509 551.613Z" fill="#77D683"/>
<path d="M188.952 484.507C188.283 484.846 187.274 484.517 186.934 483.849L186.594 483.18L194.948 430.173C195.112 429.669 195.945 428.826 196.954 429.155C197.459 429.319 198.304 430.152 197.975 431.16L189.621 484.168C189.116 484.003 188.952 484.507 188.952 484.507ZM175.987 478.05C175.318 478.389 174.309 478.06 173.969 477.392L173.628 476.723L181.818 424.219C181.983 423.715 182.816 422.872 183.825 423.201C184.329 423.366 185.174 424.199 184.846 425.206L176.656 477.71C177.489 476.867 176.315 477.042 175.987 478.05ZM164.676 468.231C164.007 468.57 162.998 468.241 162.658 467.573L162.317 466.904L170.026 417.587C170.191 417.084 171.024 416.241 172.033 416.57C173.042 416.899 173.382 417.567 173.054 418.575L165.345 467.892C165.169 466.72 164.84 467.727 164.676 468.231ZM152.192 458.587C151.523 458.926 150.514 458.597 150.173 457.928L149.833 457.26L156.392 411.469C156.556 410.966 157.39 410.123 158.399 410.452C158.903 410.616 159.748 411.449 159.419 412.457L152.86 458.247C152.86 458.247 152.696 458.751 152.192 458.587ZM140.212 449.107C139.543 449.446 138.534 449.117 138.194 448.449L137.853 447.781L144.107 406.349C144.272 405.845 145.105 405.002 146.114 405.331C146.618 405.496 147.463 406.329 147.135 407.336L140.881 448.768C141.549 448.429 141.549 448.428 140.212 449.107ZM128.549 436.944C127.88 437.283 126.871 436.954 126.531 436.286L126.19 435.618L131.306 399.388C131.471 398.884 132.304 398.041 133.313 398.37C133.817 398.535 134.662 399.368 134.333 400.375L129.218 436.605C130.051 435.762 129.886 436.265 128.549 436.944ZM117.379 423.27C116.71 423.609 115.701 423.28 115.361 422.612L115.02 421.943L119.186 393.764C119.35 393.26 120.183 392.417 121.192 392.746C121.697 392.911 122.541 393.743 122.213 394.751L118.048 422.931C118.881 422.088 117.543 422.766 117.379 423.27Z" fill="#77D683"/>
<path d="M188.625 485.514L138.594 505.426C137.925 505.765 136.916 505.436 136.576 504.767C136.235 504.099 136.564 503.092 137.233 502.752L187.264 482.841C187.933 482.502 188.942 482.831 189.282 483.499C189.622 484.167 189.458 484.671 188.625 485.514ZM174.967 476.045L129.453 494.085C128.785 494.424 127.776 494.095 127.435 493.427C127.095 492.759 127.424 491.751 128.092 491.412L173.606 473.372C174.275 473.032 175.284 473.362 175.624 474.03C175.46 474.534 174.967 476.045 174.967 476.045ZM161.814 466.74L120.313 482.745C119.644 483.084 118.635 482.755 118.295 482.087C117.955 481.418 118.283 480.411 118.952 480.072L159.444 463.738C160.113 463.398 161.122 463.727 161.462 464.396C162.307 465.229 162.319 466.904 161.814 466.74ZM149.67 457.764L111.853 472.741C111.185 473.08 110.175 472.751 109.835 472.083C109.495 471.415 109.823 470.407 110.492 470.068L148.309 455.091C148.978 454.752 149.987 455.081 150.327 455.749C151.172 456.582 149.834 457.26 149.67 457.764ZM138.523 447.441L103.218 461.565C102.549 461.905 101.54 461.576 101.199 460.907C100.859 460.239 101.188 459.231 101.857 458.892L137.162 444.768C137.831 444.429 138.84 444.758 139.18 445.426C139.521 446.095 139.192 447.102 138.523 447.441ZM128.386 437.448L94.4176 450.893C93.7488 451.232 92.7397 450.903 92.3995 450.235C92.0592 449.567 92.3877 448.559 93.0565 448.22L127.025 434.775C127.693 434.435 128.703 434.764 129.043 435.433C129.888 436.265 129.559 437.273 128.386 437.448ZM120.09 426.94C119.586 426.776 119.586 426.776 120.09 426.94L86.1221 440.386C85.4533 440.725 84.4442 440.396 84.1039 439.728C83.7637 439.059 84.0922 438.052 84.761 437.713L118.729 424.267C119.398 423.928 120.407 424.257 120.747 424.925C120.583 425.429 120.419 425.933 120.09 426.94Z" fill="#77D683"/>
<path d="M447.475 465.797H600.46V636.139H447.475V465.797Z" fill="#D5D6D7"/>
<path d="M352.637 630.253H694.949V643.409H352.637V630.253Z" fill="#144849"/>
<path d="M182 140H854.165V575.55H182V140Z" fill="url(#paint0_linear_2992_165721)"/>
<path d="M193.768 150.733H842.396V509.075H193.768V150.733Z" fill="white"/>
<path d="M537.104 337.942H501.351C483.773 337.942 469.174 323.221 469.174 305.496V287.471C469.174 259.532 491.519 237 519.228 237C546.936 237 569.282 259.532 569.282 287.471V305.496C569.282 323.822 554.683 337.942 537.104 337.942ZM519.228 250.519C498.968 250.519 482.283 267.343 482.283 287.771V305.797C482.283 316.311 490.626 324.723 501.053 324.723H537.104C547.532 324.723 555.875 316.311 555.875 305.797V287.771C556.173 267.343 539.488 250.519 519.228 250.519Z" fill="#66C6C7"/>
<path d="M547.235 430.171H490.924C468.876 430.171 451 412.146 451 389.915V333.135C451 310.904 468.876 292.878 490.924 292.878H547.235C569.282 292.878 587.159 310.904 587.159 333.135V389.915C587.159 412.146 569.282 430.171 547.235 430.171Z" fill="#00A6A9"/>
<path d="M539.489 416.952H488.541C468.877 416.952 453.086 401.03 453.086 381.202V330.431C453.086 310.603 468.877 294.681 488.541 294.681H539.191C558.855 294.681 574.646 310.603 574.646 330.431V380.601C574.944 401.03 559.153 416.952 539.489 416.952Z" fill="#66C6C7"/>
<path d="M519.228 388.713C512.673 388.713 507.311 383.305 507.311 376.696V335.538C507.311 328.929 512.673 323.521 519.228 323.521C525.783 323.521 531.146 328.929 531.146 335.538V376.696C531.146 383.305 525.783 388.713 519.228 388.713Z" fill="#23286B"/>
<path d="M695.721 400.365L699.366 428.726L685.538 430.504L681.893 402.143L695.721 400.365ZM668.402 403.877L672.048 432.238L658.22 434.015L654.574 405.654L668.402 403.877Z" fill="#66C6C7"/>
<path d="M638.114 445.631L636.577 433.671C635.654 426.496 640.978 419.906 647.724 419.039L731.703 408.245L736.578 446.173L652.599 456.968C645.473 457.537 639.036 452.806 638.114 445.631Z" fill="#66C6C7"/>
<path d="M733.824 419.434L735.625 433.443L656.03 443.674L654.229 429.665L733.824 419.434Z" fill="#00A6A9"/>
<path d="M824.617 437.635L819.039 394.239C816.843 377.154 801.595 365.22 784.732 367.388L741.899 372.894C725.036 375.061 713.302 390.463 715.498 407.548L721.076 450.944C723.272 468.029 738.52 479.963 755.383 477.795L798.216 472.289C814.405 470.208 826.813 454.72 824.617 437.635ZM775.098 439.137L770.618 404.284L805.02 399.862L809.5 434.715L775.098 439.137Z" fill="#66C6C7"/>
<path d="M853.669 408.792C853.669 408.792 830.163 405.405 822.481 380.616C822.481 380.462 819.562 367.836 817.565 364.757C815.26 360.908 809.422 358.598 805.735 358.598C801.433 358.598 793.444 360.138 784.226 362.448C782.229 362.909 772.242 367.683 772.242 369.684C772.242 371.224 773.779 372.456 775.622 372.61C777.466 372.763 778.849 372.148 780.385 371.532C787.145 368.76 788.067 369.068 795.288 368.76C799.436 368.76 802.969 368.76 802.355 370.3C800.511 374.457 795.288 373.995 790.832 373.533C789.449 373.379 786.684 373.533 785.455 373.687C784.072 373.841 781.768 375.073 782.536 376.459C784.072 379.384 792.215 379.23 797.285 378.768C799.589 378.614 801.587 378.922 803.584 380.154C806.042 381.54 808.808 384.311 809.729 386.929C816.029 405.713 825.093 433.889 859.969 439.586L853.669 408.792Z" fill="url(#paint1_linear_2992_165721)"/>
<path d="M897.3 365.373C897.3 365.373 885.778 411.871 847.215 401.247L855.665 446.36C855.665 446.36 889.004 444.512 904.828 423.419C920.653 402.787 899.912 367.374 897.3 365.373Z" fill="#FFC105"/>
<path d="M909.131 693.633L921.575 728.43H833.695C833.695 728.43 838.151 719.808 853.207 713.187C868.11 706.874 882.244 693.479 882.244 693.479L909.131 693.633Z" fill="#3E0803"/>
<path d="M972.123 693.633L984.568 728.43H896.688C896.688 728.43 901.143 719.808 916.199 713.187C931.102 706.874 945.237 693.479 945.237 693.479L972.123 693.633Z" fill="#530B04"/>
<path d="M946.77 447.592C945.695 450.979 944.005 454.212 942.008 457.138C938.781 461.449 934.019 464.682 928.795 465.914C928.795 465.914 928.795 466.068 923.11 467.3C915.121 468.685 914.353 468.839 914.353 468.839L898.682 467.916L891.154 497.631C887.313 515.184 881.014 536.278 880.553 557.371C880.092 587.395 882.397 693.633 882.397 693.633H909.283C931.253 671.616 929.256 654.525 930.792 619.574C932.329 584.778 937.86 596.017 936.016 562.76C934.48 529.657 935.094 536.278 945.695 489.009C949.229 475.768 949.536 461.449 946.77 447.592Z" fill="#02295B"/>
<path d="M973.043 645.441C969.663 626.349 963.364 630.198 964.593 615.417C965.976 600.636 963.057 591.09 957.372 575.54C951.995 559.835 940.165 562.298 957.219 510.873C963.979 490.241 964.747 468.224 959.216 447.284C958.141 447.438 956.758 447.746 955.529 447.9V446.976C955.529 446.976 953.224 447.592 949.691 448.824C948.615 448.978 947.386 448.978 946.311 449.286C946.311 449.44 946.157 449.748 946.157 449.901C931.408 454.674 905.443 463.297 906.519 464.221C908.363 465.298 901.756 509.795 901.756 509.795L907.902 516.57H907.748L901.91 509.795C900.066 528.579 899.452 549.365 900.988 567.225C902.985 589.705 945.543 693.479 945.543 693.479H972.429C972.122 693.787 976.423 664.533 973.043 645.441Z" fill="#033679"/>
<path opacity="0.86" d="M953.534 464.529H953.381V464.683L953.534 464.529ZM949.54 462.989H949.386V463.143L949.54 462.989ZM940.629 477.77C940.629 477.77 940.475 477.616 940.475 477.77C940.475 477.77 940.322 477.924 940.475 477.924C940.475 477.924 940.629 478.232 940.629 477.77C940.629 477.924 940.629 477.924 940.629 477.77ZM938.785 473.613C938.632 473.613 938.632 473.613 938.785 473.613H938.632C938.632 473.613 938.478 473.767 938.632 473.767C938.632 473.921 938.785 474.075 938.785 473.613C938.785 473.921 938.785 473.921 938.785 473.613ZM946.774 470.687H946.621V470.841L946.774 470.687ZM943.548 467.454H943.394V467.608L943.548 467.454C943.855 467.762 943.855 467.762 943.548 467.454ZM964.135 478.694C963.982 478.54 963.674 478.54 963.674 478.694C963.521 478.848 963.674 479.156 963.674 479.156C963.828 479.31 964.135 479.31 964.135 479.156C964.443 478.848 964.443 478.848 964.135 478.694ZM958.143 473.151C957.99 472.997 957.683 473.151 957.683 473.151C957.529 473.305 957.683 473.613 957.683 473.613C957.836 473.613 957.836 473.613 958.143 473.613C958.143 473.459 958.143 473.151 958.143 473.151ZM951.691 467.762C951.537 467.608 951.23 467.762 951.23 467.762C951.076 467.916 951.23 468.224 951.23 468.224C951.383 468.224 951.383 468.224 951.691 468.224C951.998 467.916 951.998 467.762 951.691 467.762ZM939.093 499.787C938.939 499.787 938.939 499.941 938.939 500.249C938.939 500.557 939.093 500.403 939.4 500.403C939.553 500.403 939.553 500.249 939.553 499.941C939.246 499.787 939.246 499.787 939.093 499.787ZM938.324 491.319C938.171 491.319 938.171 491.473 938.171 491.781C938.171 492.089 938.324 491.935 938.632 491.935C938.785 491.935 938.785 491.781 938.785 491.473C938.785 491.627 938.632 491.319 938.324 491.319ZM937.863 483.005C937.71 483.005 937.71 483.159 937.71 483.467C937.71 483.775 937.863 483.621 938.171 483.621C938.324 483.621 938.324 483.467 938.324 483.159C938.171 483.159 938.171 483.005 937.863 483.005ZM937.249 474.844C937.095 474.844 937.095 474.998 937.095 475.306C937.095 475.46 937.249 475.46 937.556 475.46C937.863 475.46 937.71 475.306 937.71 474.998C937.71 474.844 937.403 474.844 937.249 474.844ZM967.823 464.375C967.669 464.375 967.362 464.375 967.362 464.529C967.362 464.683 967.362 464.99 967.515 464.99C967.669 464.99 967.976 464.99 967.976 464.837C968.283 464.529 967.976 464.375 967.823 464.375ZM960.141 461.603C959.987 461.603 959.68 461.603 959.68 461.757C959.68 461.911 959.68 462.219 959.833 462.219C959.987 462.219 960.294 462.219 960.294 462.065C960.294 462.065 960.141 461.911 960.141 461.603ZM955.378 491.319C955.378 491.165 955.224 491.165 954.917 491.165C954.763 491.165 954.763 491.319 954.763 491.627C954.763 491.935 954.917 491.781 955.224 491.781C955.378 491.781 955.378 491.627 955.378 491.319ZM951.691 483.929C951.691 483.775 951.537 483.775 951.23 483.775C951.076 483.775 951.076 483.929 951.076 484.237C951.076 484.544 951.23 484.39 951.537 484.39C951.691 484.39 951.691 484.083 951.691 483.929ZM947.85 476.384C947.85 476.23 947.696 476.23 947.389 476.23C947.235 476.23 947.235 476.384 947.235 476.692C947.235 477 947.389 476.846 947.696 476.846C947.85 476.846 948.157 476.538 947.85 476.384ZM944.316 469.148C944.316 468.994 944.163 468.994 943.855 468.994C943.702 468.994 943.702 469.148 943.702 469.456C943.702 469.61 943.855 469.61 944.163 469.61C944.316 469.302 944.316 469.148 944.316 469.148ZM923.422 493.629C923.268 493.629 922.961 493.629 922.961 493.783C922.961 493.937 922.961 494.244 923.114 494.244C923.268 494.244 923.575 494.244 923.575 494.09C923.575 493.937 923.729 493.783 923.422 493.629ZM926.187 485.93C926.033 485.93 925.726 485.93 925.726 486.084C925.726 486.238 925.726 486.546 925.88 486.546C926.033 486.546 926.341 486.546 926.341 486.392C926.341 486.084 926.341 485.93 926.187 485.93ZM928.645 477.924C928.492 477.924 928.184 477.924 928.184 478.078C928.184 478.232 928.184 478.54 928.338 478.54C928.492 478.54 928.799 478.54 928.799 478.386C929.106 478.232 928.799 477.924 928.645 477.924ZM962.445 487.47C962.445 487.316 962.292 487.316 961.984 487.47C961.831 487.47 961.831 487.624 961.984 487.932C961.984 488.086 962.138 488.086 962.445 487.932C962.599 487.932 962.599 487.778 962.445 487.47ZM958.604 481.311C958.604 481.157 958.451 481.157 958.143 481.311C957.99 481.311 957.99 481.465 958.143 481.773C958.143 481.927 958.297 481.927 958.604 481.773C958.604 481.619 958.604 481.311 958.604 481.311ZM954.763 474.998C954.61 474.844 954.303 474.998 954.303 474.998V475.152C954.303 475.46 954.456 475.46 954.763 474.998C954.763 475.152 954.763 475.152 954.917 474.998C954.763 475.306 954.763 474.998 954.763 474.998ZM950.615 468.686C950.615 468.532 950.462 468.532 950.154 468.686C950.001 468.686 950.001 468.84 950.154 469.148C950.154 469.302 950.308 469.302 950.615 469.148C950.769 469.148 950.769 468.84 950.615 468.686ZM931.564 492.551C931.411 492.551 931.411 492.551 931.103 492.705C931.103 492.859 931.103 492.859 931.257 493.167C931.411 493.167 931.411 493.167 931.718 493.013C931.872 492.705 931.564 492.705 931.564 492.551ZM933.101 485.468C932.947 485.468 932.947 485.468 932.64 485.622C932.64 485.776 932.64 485.776 932.793 486.084C932.947 486.084 932.947 486.084 933.254 485.93C933.408 485.468 933.408 485.468 933.101 485.468ZM934.791 478.232C934.637 478.232 934.637 478.232 934.33 478.386C934.33 478.54 934.33 478.54 934.483 478.848C934.637 478.848 934.637 478.848 934.944 478.694C935.252 478.386 934.944 478.232 934.791 478.232ZM965.364 469.764C965.211 469.764 965.211 469.764 964.903 469.764C964.903 469.917 964.903 469.917 964.903 470.225C965.057 470.225 965.057 470.225 965.364 470.225C965.518 470.071 965.518 469.764 965.364 469.764ZM959.373 465.452C959.219 465.452 959.219 465.452 958.912 465.452C958.912 465.606 958.912 465.606 958.912 465.914C959.065 465.914 959.065 465.914 959.373 465.914C959.373 465.76 959.373 465.452 959.373 465.452ZM947.235 489.317C947.082 489.317 947.082 489.471 947.082 489.779C947.082 489.933 947.235 489.933 947.543 489.933C947.696 489.933 947.696 489.779 947.696 489.779C947.696 489.317 947.389 489.317 947.235 489.317ZM946.006 482.081C945.853 482.081 945.853 482.235 945.853 482.543C945.853 482.851 946.006 482.697 946.313 482.697C946.621 482.697 946.467 482.543 946.467 482.543C946.313 482.081 946.313 482.081 946.006 482.081ZM944.777 474.537C944.623 474.537 944.623 474.69 944.623 474.69C944.623 474.844 944.777 474.844 945.084 474.844C945.392 474.844 945.238 474.69 945.238 474.69C945.238 474.69 944.931 474.537 944.777 474.537C944.931 474.537 944.931 474.537 944.777 474.537ZM919.734 483.159C919.581 483.159 919.581 483.159 919.273 483.159C919.273 483.313 919.273 483.313 919.273 483.621C919.427 483.621 919.427 483.621 919.734 483.621C920.042 483.467 920.042 483.467 919.734 483.159ZM961.984 469.302H961.831V469.456L961.984 469.302ZM959.065 466.222H958.912V466.376L959.065 466.222ZM955.993 462.989H955.839V463.143L955.993 462.989ZM944.47 475.768C944.316 475.922 944.316 476.23 944.47 476.23C944.777 476.076 944.777 476.076 944.47 475.768C944.777 475.922 944.777 475.768 944.47 475.768ZM944.777 471.457C944.47 471.457 944.47 471.457 944.777 471.457C944.623 471.611 944.777 471.919 944.777 471.919C944.777 471.765 944.931 471.611 944.777 471.457ZM944.931 467.146C944.777 467.146 944.777 467.146 944.931 467.146C944.777 467.3 944.931 467.608 944.931 467.608C944.931 467.3 944.931 467.3 944.931 467.146ZM953.381 472.073C953.073 471.765 953.073 471.765 953.381 472.073C953.227 472.073 953.227 472.073 953.227 472.073C953.227 472.073 953.073 472.227 953.227 472.227C953.073 472.227 953.381 472.535 953.381 472.073ZM951.691 467.916C951.691 467.762 951.691 467.762 951.691 467.916H951.537C951.537 467.916 951.383 468.07 951.537 468.07C951.537 468.224 951.691 468.378 951.691 467.916ZM950.154 463.913C950.154 463.913 950.001 463.759 950.001 463.913C950.001 463.913 949.847 464.067 950.001 464.067C950.001 464.067 950.154 464.375 950.154 463.913C950.308 463.913 950.154 464.067 950.154 463.913ZM965.057 473.613C965.057 473.613 964.903 473.459 964.903 473.613C964.903 473.613 964.75 473.767 964.903 473.767C964.903 473.921 965.057 474.075 965.057 473.613ZM962.445 469.302C962.445 469.302 962.292 469.148 962.292 469.302C962.292 469.302 962.138 469.456 962.292 469.456C962.138 469.61 962.445 469.764 962.445 469.302C962.445 469.61 962.445 469.61 962.445 469.302ZM959.68 465.298C959.68 465.298 959.526 465.144 959.526 465.298C959.526 465.298 959.373 465.452 959.526 465.452L959.68 465.298ZM944.316 477.308C944.316 477.308 944.163 477.308 944.163 477.462C944.163 477.462 944.163 477.616 944.316 477.616C944.316 477.616 944.47 477.616 944.47 477.462C944.47 477.308 944.316 477.308 944.316 477.308ZM945.392 472.227C945.392 472.227 945.238 472.227 945.238 472.381C945.238 472.381 945.238 472.535 945.392 472.535C945.392 472.535 945.545 472.535 945.545 472.381L945.392 472.227ZM946.313 467.454C946.313 467.454 946.16 467.454 946.16 467.608C946.16 467.608 946.16 467.762 946.313 467.762C946.313 467.762 946.467 467.762 946.467 467.608C946.467 467.454 946.467 467.454 946.313 467.454ZM947.389 462.527C947.389 462.527 947.235 462.527 947.235 462.681C947.235 462.681 947.235 462.835 947.389 462.835C947.389 462.835 947.543 462.835 947.543 462.681C947.696 462.835 947.696 462.527 947.389 462.527ZM970.742 464.375H970.588V464.529L970.742 464.375C970.742 464.529 970.742 464.529 970.742 464.375ZM966.44 461.603H966.286V461.757L966.44 461.603C966.747 461.911 966.747 461.603 966.44 461.603ZM954.763 474.998L954.61 474.844L954.456 474.998L954.61 475.152C954.763 475.306 954.763 475.306 954.763 474.998ZM953.534 470.071L953.381 470.225L953.534 470.379L953.688 470.225C953.842 470.071 953.842 469.764 953.534 470.071ZM952.613 464.99L952.459 465.144L952.613 465.298L952.766 465.144C952.92 464.99 952.92 464.99 952.613 464.99ZM972.432 461.603C972.278 461.603 971.971 461.603 971.971 461.603C971.817 461.757 971.971 462.065 971.971 462.065C972.124 462.065 972.432 462.065 972.432 462.065C972.585 462.065 972.585 461.911 972.432 461.603ZM962.138 495.63C961.984 495.63 961.984 495.784 961.984 496.092C961.984 496.4 962.138 496.246 962.445 496.246C962.599 496.246 962.599 496.092 962.599 495.784C962.445 495.63 962.445 495.63 962.138 495.63ZM960.755 487.008C960.602 487.008 960.602 487.162 960.602 487.47C960.602 487.624 960.755 487.624 961.063 487.624C961.216 487.624 961.216 487.47 961.216 487.162C961.216 487.316 961.063 487.008 960.755 487.008ZM959.373 478.694C959.219 478.694 958.912 478.848 959.219 479.156C959.219 479.31 959.373 479.617 959.68 479.31C959.833 479.31 959.833 479.156 959.833 478.848C959.833 478.694 959.68 478.694 959.373 478.694ZM958.143 470.225C957.99 470.225 957.99 470.379 957.99 470.687C957.99 470.841 958.143 470.841 958.451 470.841C958.604 470.841 958.604 470.687 958.604 470.379C958.604 470.225 958.297 470.225 958.143 470.225ZM956.761 461.603C956.607 461.603 956.607 461.757 956.607 462.065C956.607 462.219 956.761 462.219 957.068 462.219C957.375 462.219 957.222 462.065 957.222 461.757C957.222 461.911 956.914 461.603 956.761 461.603ZM927.263 487.316C927.109 487.316 926.802 487.316 926.802 487.316C926.802 487.47 926.802 487.778 926.802 487.778C926.955 487.778 927.263 487.778 927.263 487.778C927.57 487.47 927.57 487.316 927.263 487.316ZM932.486 480.233C932.333 480.233 932.025 480.233 932.025 480.233C932.025 480.387 932.025 480.695 932.025 480.695C932.179 480.695 932.486 480.695 932.486 480.695C932.486 480.541 932.486 480.541 932.486 480.233ZM968.898 471.149C968.898 470.995 968.744 470.995 968.437 470.995C968.283 470.995 968.283 471.149 968.283 471.457C968.283 471.765 968.437 471.611 968.744 471.611C969.205 471.611 969.205 471.457 968.898 471.149ZM964.596 463.913C964.596 463.759 964.443 463.759 964.135 463.759C963.982 463.759 963.982 463.913 963.982 464.221C964.135 464.375 964.135 464.375 964.443 464.221C964.596 464.375 964.596 464.067 964.596 463.913ZM945.392 491.165C945.238 491.165 944.931 491.165 944.931 491.319C944.931 491.473 944.931 491.781 945.084 491.781C945.238 491.781 945.545 491.781 945.545 491.627C945.853 491.319 945.699 491.165 945.392 491.165ZM947.389 482.697C947.235 482.697 946.928 482.697 946.928 482.851C946.928 483.005 946.928 483.313 947.082 483.313C947.235 483.313 947.543 483.313 947.543 483.159C947.696 483.005 947.696 482.697 947.389 482.697ZM949.54 474.383C949.386 474.383 949.079 474.383 949.079 474.537C949.079 474.69 949.079 474.998 949.233 474.998C949.386 474.998 949.693 474.998 949.693 474.844C949.693 474.537 949.693 474.383 949.54 474.383ZM951.537 466.222C951.383 466.222 951.076 466.222 951.076 466.376C951.076 466.53 951.076 466.838 951.23 466.838C951.383 466.838 951.691 466.838 951.691 466.684C951.691 466.53 951.691 466.222 951.537 466.222ZM971.663 465.76C971.663 465.606 971.51 465.606 971.203 465.76C971.049 465.76 971.049 465.914 971.203 466.222C971.356 466.376 971.356 466.376 971.663 466.222C971.971 465.914 971.971 465.76 971.663 465.76C971.971 465.76 971.971 465.76 971.663 465.76ZM950.615 493.783C950.462 493.783 950.154 493.783 950.154 493.937C950.154 494.09 950.154 494.398 950.308 494.398C950.462 494.398 950.769 494.398 950.769 494.244C950.769 494.09 950.769 493.783 950.615 493.783ZM952.152 485.468C951.998 485.468 951.691 485.468 951.691 485.622C951.691 485.776 951.691 486.084 951.844 486.084C951.998 486.084 952.305 486.084 952.305 485.93C952.613 485.622 952.459 485.468 952.152 485.468ZM953.995 477C953.842 477 953.534 477 953.534 477.154C953.534 477.308 953.534 477.616 953.688 477.616C953.842 477.616 954.149 477.616 954.149 477.462C954.149 477.308 953.995 477 953.995 477ZM955.532 468.686C955.378 468.686 955.071 468.686 955.071 468.84C955.071 468.994 955.071 469.302 955.224 469.302C955.378 469.302 955.685 469.302 955.685 469.148C955.839 468.84 955.839 468.686 955.532 468.686ZM966.44 480.849C966.286 480.849 966.286 481.003 966.286 481.311C966.286 481.619 966.44 481.465 966.747 481.465C966.901 481.465 966.901 481.311 966.901 481.003C966.901 480.849 966.747 480.695 966.44 480.849ZM964.903 472.535C964.75 472.535 964.75 472.689 964.75 472.997C964.75 473.305 964.903 473.151 965.211 473.151C965.518 473.151 965.364 472.997 965.364 472.689C965.364 472.535 965.057 472.535 964.903 472.535ZM963.06 464.067C962.906 464.067 962.906 464.221 962.906 464.529C962.906 464.683 963.06 464.683 963.367 464.683C963.521 464.683 963.521 464.529 963.521 464.221C963.521 464.067 963.367 464.067 963.06 464.067ZM936.327 483.159C936.173 483.159 935.866 483.159 935.866 483.159C935.866 483.313 935.866 483.621 935.866 483.621C936.02 483.621 936.327 483.621 936.327 483.621C936.634 483.467 936.634 483.467 936.327 483.159ZM941.09 476.076C940.936 476.076 940.629 476.076 940.629 476.076C940.629 476.23 940.629 476.538 940.629 476.538C940.783 476.538 941.09 476.538 941.09 476.538C941.397 476.384 941.397 476.076 941.09 476.076ZM945.853 468.84C945.699 468.84 945.392 468.84 945.392 468.84C945.392 468.994 945.392 469.302 945.392 469.302C945.545 469.302 945.853 469.302 945.853 469.302C946.006 469.302 946.006 469.148 945.853 468.84ZM950.615 461.911C950.462 461.911 950.154 461.911 950.154 461.911C950.154 462.065 950.154 462.373 950.154 462.373C950.308 462.373 950.615 462.373 950.615 462.373C950.769 462.065 950.769 462.065 950.615 461.911ZM970.588 461.603C970.588 461.449 970.434 461.449 970.434 461.449C970.281 461.449 970.281 461.603 970.281 461.911C970.281 462.065 970.434 462.065 970.742 462.065C970.588 462.065 970.588 461.911 970.588 461.603ZM950.615 479.156C950.462 479.156 950.462 479.156 950.154 479.31C950.154 479.464 950.154 479.464 950.308 479.771C950.462 479.771 950.462 479.771 950.769 479.617C950.769 479.31 950.615 479.31 950.615 479.156ZM953.073 473.151C952.92 473.151 952.92 473.151 952.613 473.305C952.613 473.459 952.613 473.459 952.766 473.767C952.92 473.767 952.92 473.767 953.227 473.613C953.381 473.459 953.381 473.151 953.073 473.151ZM955.532 467.3C955.378 467.3 955.378 467.3 955.071 467.454C955.071 467.608 955.071 467.608 955.224 467.916C955.378 467.916 955.378 467.916 955.685 467.762C955.839 467.454 955.839 467.3 955.532 467.3ZM958.143 461.449C957.99 461.449 957.99 461.449 957.683 461.603C957.683 461.757 957.683 461.757 957.836 462.065C957.99 462.065 957.99 462.065 957.99 461.911C958.297 461.603 958.297 461.449 958.143 461.449ZM963.982 478.694C963.828 478.694 963.828 478.694 963.828 478.848C963.828 479.002 963.982 479.002 963.982 479.002C964.135 479.002 964.135 478.848 964.135 478.848C964.443 478.694 964.135 478.694 963.982 478.694C964.135 478.694 964.135 478.694 963.982 478.694ZM964.135 472.073C963.982 472.073 963.982 472.073 963.982 472.227C963.982 472.381 963.982 472.381 964.135 472.381C964.289 472.381 964.289 472.227 964.289 472.227L964.135 472.073ZM964.135 465.76C963.982 465.76 963.982 465.914 963.982 465.914C963.982 466.068 963.982 466.068 964.135 466.068C964.289 466.068 964.289 466.068 964.289 465.914C964.443 465.914 964.443 465.76 964.135 465.76ZM946.006 464.529C946.006 464.529 945.853 464.529 945.545 464.529C945.545 464.529 945.545 464.683 945.545 464.99C945.545 464.99 945.699 464.99 946.006 464.99C946.313 464.99 946.313 464.837 946.006 464.529ZM965.825 464.529C965.518 464.837 965.518 464.837 965.825 464.529C965.979 464.837 965.825 464.837 965.825 464.529C965.979 464.529 965.979 464.529 965.825 464.529ZM961.677 470.071H961.523V470.225L961.677 470.071C961.984 470.225 961.984 470.071 961.677 470.071ZM964.903 464.99C964.75 464.99 964.75 464.99 964.75 464.99V465.144L964.903 464.99C965.057 465.298 964.903 465.298 964.903 464.99Z" fill="white"/>
<path d="M913.431 359.984C926.337 365.681 937.859 373.841 947.385 384.311C963.517 401.863 961.673 409.716 970.43 419.878C979.188 430.347 991.325 442.819 981.953 460.525C981.953 460.525 946.002 463.758 928.027 458.062L897.453 365.373C897.607 365.527 906.21 368.144 913.431 359.984Z" fill="url(#paint2_linear_2992_165721)"/>
<path d="M865.194 458.216C865.194 458.216 852.903 465.914 843.07 468.84C833.084 471.611 832.469 470.841 829.089 466.53C825.863 462.373 822.944 458.37 820.486 453.751C819.41 451.749 816.184 451.441 816.645 456.984C817.106 462.373 824.327 465.606 821.1 468.07C817.874 470.841 807.58 470.995 799.745 470.379C792.063 469.763 787.761 469.763 794.06 479.463C800.359 489.163 808.502 495.322 830.779 486.7C852.903 478.232 868.42 480.387 876.102 481.311L865.194 458.216Z" fill="url(#paint3_linear_2992_165721)"/>
<path d="M897.149 366.913C897.149 366.913 906.213 395.551 902.065 413.719C898.224 430.04 893.001 435.582 877.637 439.893C862.273 444.205 862.273 444.051 862.273 444.051L873.643 504.252C873.643 504.252 889.928 508.409 902.68 496.092C915.432 483.774 920.194 480.849 928.798 478.386C937.248 475.922 954.609 465.606 950.922 437.276C947.234 408.946 940.321 389.546 913.742 360.138" fill="url(#paint4_linear_2992_165721)"/>
<path d="M895.766 351.362C897.148 355.827 897.609 360.6 897.609 365.373C897.609 365.373 904.369 369.838 913.434 359.676L906.827 343.048L895.766 351.362Z" fill="url(#paint5_linear_2992_165721)"/>
<path d="M878.559 319.028C878.559 319.336 878.559 319.336 878.559 319.028C878.405 319.644 878.405 320.106 878.098 320.568C876.715 325.957 871.952 329.806 871.799 331.192C871.645 332.732 874.564 334.117 875.947 334.579C877.33 334.733 878.252 342.278 883.475 347.051C888.392 351.516 896.688 352.286 902.526 349.976C906.213 338.428 905.292 332.424 894.383 325.649C882.553 318.105 884.397 309.944 884.397 309.944C881.478 312.87 879.634 315.949 878.559 319.028Z" fill="url(#paint6_linear_2992_165721)"/>
<path d="M933.56 333.809C931.563 327.651 931.102 320.26 930.795 317.489C930.334 313.64 924.189 301.322 910.208 299.782C896.38 298.243 878.559 300.706 878.098 319.49C879.173 316.103 881.324 312.87 883.782 310.406C883.782 310.406 881.939 318.567 893.769 326.111C894.844 326.727 896.227 327.651 897.456 328.574C902.372 336.273 904.523 345.357 896.38 353.363C895.919 353.825 896.534 354.441 896.995 353.979C904.523 346.435 903.755 338.121 899.76 330.576C905.445 336.427 904.677 342.586 900.836 353.517C900.836 353.517 920.962 360.754 941.089 351.054C940.935 346.743 939.245 342.586 936.326 339.198C935.404 338.121 934.482 336.427 934.021 335.041C938.477 339.506 943.7 343.817 942.164 350.746C942.164 350.9 942.164 351.208 942.625 351.362C942.779 351.362 943.086 351.362 943.239 350.9C945.237 343.509 938.63 339.044 933.56 333.809Z" fill="#562400"/>
<path d="M883.63 326.573C881.787 328.113 879.175 328.113 877.485 326.573C876.87 325.957 876.563 325.187 876.41 324.263C876.256 323.648 877.331 323.34 877.331 324.11C877.485 325.957 879.175 327.035 881.019 326.881C881.633 326.881 882.401 326.419 882.862 325.957C883.323 325.495 884.245 326.111 883.63 326.573Z" fill="#1C2868"/>
<path d="M305.85 423.309C305.85 423.309 320.97 409.493 323.274 398.123C325.578 386.466 324.714 378.838 328.746 376.68C332.778 374.521 344.73 372.794 346.17 372.506C347.466 372.074 347.178 374.665 341.706 376.536C341.706 376.536 344.874 378.263 345.594 383.732C346.17 389.488 341.13 383.875 339.834 385.027C338.826 386.034 340.698 392.511 334.074 396.54C327.45 400.57 327.882 434.103 316.218 449.358C316.362 449.214 306.714 423.309 305.85 423.309C304.986 423.453 316.218 449.214 316.218 449.214Z" fill="url(#paint7_linear_2992_165721)"/>
<path d="M237.307 367.181C236.443 371.642 236.443 376.104 236.875 380.565C236.875 380.565 230.971 385.171 221.611 376.68L226.363 360.561L237.307 367.181Z" fill="#815C51"/>
<path d="M250.698 335.519C250.698 335.663 250.698 335.663 250.698 335.663C250.842 336.095 251.13 336.527 251.274 336.958C253.146 341.851 257.61 345.018 258.042 346.457C258.474 347.896 255.882 349.479 254.442 349.911C253.146 350.343 253.146 357.395 248.538 362.288C244.362 366.893 236.586 368.188 231.114 366.749C226.65 356.099 225.21 348.472 234.714 341.132C245.082 333.073 244.65 328.035 244.65 328.035C247.386 330.05 249.258 332.497 250.698 335.519Z" fill="url(#paint8_linear_2992_165721)"/>
<path d="M203.61 333.648C212.518 333.648 219.738 326.432 219.738 317.529C219.738 308.627 212.518 301.411 203.61 301.411C194.703 301.411 187.482 308.627 187.482 317.529C187.482 326.432 194.703 333.648 203.61 333.648Z" fill="#1E1E1E"/>
<path d="M247.819 340.412C249.547 341.708 251.995 341.276 253.579 339.549C254.011 338.973 254.443 338.11 254.443 337.246C254.443 336.67 253.579 336.383 253.579 337.102C253.579 338.829 252.283 340.124 250.555 340.124C249.979 340.124 249.259 339.981 248.827 339.549C247.819 339.261 247.099 339.981 247.819 340.412Z" fill="#1C2868"/>
<path d="M231.403 714.022H257.323C257.323 714.022 270.859 726.687 285.403 732.875C299.947 739.064 304.267 747.555 304.267 747.555H219.451L231.403 714.022Z" fill="#0D3031"/>
<path d="M176.682 714.022H204.186C204.186 714.022 216.138 726.687 230.538 732.875C244.938 739.064 249.402 747.555 249.402 747.555H164.73L176.682 714.022Z" fill="#144849"/>
<path d="M257.323 714.022H231.403C212.251 695.313 215.851 663.939 214.699 634.292C213.259 604.645 215.275 616.302 211.531 588.238C206.923 552.834 208.363 559.023 199.147 518.582C196.843 508.796 195.547 498.865 195.691 488.935C195.691 488.072 195.835 487.208 195.835 486.345C198.427 486.489 200.875 486.488 203.755 486.488C217.147 486.488 230.539 484.618 243.211 480.3C244.651 494.548 247.675 521.317 247.819 521.604C248.827 528.369 249.259 532.398 251.419 543.912C251.563 544.775 251.563 545.783 251.851 546.646C253.579 563.053 255.883 589.102 256.027 611.409C256.603 637.17 257.323 714.022 257.323 714.022Z" fill="#3E0803"/>
<path d="M252.859 592.412C250.699 612.992 204.187 714.022 204.187 714.022H176.539C176.539 714.022 177.403 680.921 180.715 663.507C184.171 646.093 190.507 649.691 189.211 636.163C187.915 622.778 190.939 614.143 196.411 599.896C201.883 585.648 214.411 578.884 197.707 531.967C192.235 516.711 188.635 497.139 189.643 485.769C194.251 486.345 199.003 486.633 203.611 486.633C217.867 486.633 231.835 484.33 245.227 479.581L249.259 520.165C249.403 522.756 249.835 524.771 250.123 527.361C253.291 547.51 255.019 571.832 252.859 592.412Z" fill="#530B04"/>
<path opacity="0.86" d="M193.675 496.994C193.387 496.994 193.243 497.138 193.675 496.994C193.675 497.426 193.387 497.138 193.675 496.994ZM191.659 492.677L191.515 492.533L191.371 492.677C191.371 492.677 191.515 492.821 191.515 492.677C191.659 492.965 191.659 492.677 191.659 492.677ZM189.931 488.503L189.787 488.359C189.787 488.359 189.643 488.503 189.787 488.503C189.787 488.503 189.931 488.647 189.931 488.503ZM200.155 489.367C200.155 489.511 200.155 489.511 200.155 489.367ZM218.875 497.858C218.731 497.714 218.443 497.714 218.443 497.858C218.299 498.002 218.299 498.29 218.443 498.29C218.587 498.434 218.875 498.434 218.875 498.29C218.875 498.29 218.875 498.002 218.875 497.858ZM212.107 492.101C211.963 491.957 211.675 491.957 211.675 492.101C211.531 492.245 211.531 492.533 211.675 492.533C211.819 492.533 212.107 492.677 212.107 492.533C212.251 492.533 212.251 492.245 212.107 492.101ZM191.947 520.165C191.803 520.165 191.515 520.309 191.515 520.597C191.515 520.885 191.659 521.029 191.947 521.029C192.091 521.029 192.379 520.885 192.379 520.597C192.379 520.309 192.091 520.165 191.947 520.165ZM191.227 511.386C191.083 511.386 190.795 511.53 190.795 511.818C190.795 511.962 190.939 512.25 191.227 511.962C191.371 511.962 191.371 511.818 191.371 511.53C191.659 511.386 191.515 511.386 191.227 511.386ZM190.651 502.463C190.507 502.463 190.219 502.607 190.219 502.895C190.219 503.039 190.363 503.327 190.651 503.327C190.795 503.327 191.083 503.183 191.083 502.895C191.083 502.751 190.795 502.463 190.651 502.463ZM209.371 511.386C209.371 511.242 209.227 511.242 208.939 511.242C208.795 511.242 208.795 511.386 208.795 511.674C208.795 511.962 208.939 511.818 209.083 511.818C209.371 511.818 209.371 511.674 209.371 511.386ZM205.339 503.615C205.339 503.471 205.195 503.471 204.907 503.471C204.763 503.471 204.763 503.615 204.763 503.903C204.763 504.19 204.907 504.046 205.195 504.046C205.339 503.903 205.483 503.759 205.339 503.615ZM201.451 495.411C201.451 495.268 201.019 495.267 201.019 495.267C200.875 495.411 200.875 495.699 200.875 495.699C200.875 495.843 201.019 495.843 201.307 495.843C201.451 495.843 201.451 495.699 201.451 495.411ZM197.419 487.64C197.419 487.496 197.275 487.496 196.987 487.496C196.843 487.496 196.843 487.64 196.843 487.928C196.843 488.072 196.987 488.072 197.275 488.072C197.419 488.072 197.419 487.784 197.419 487.64ZM216.715 507.357C216.715 507.213 216.571 507.213 216.283 507.357C216.139 507.357 216.139 507.5 216.283 507.788C216.283 507.932 216.427 507.932 216.715 507.788C217.003 507.788 217.003 507.644 216.715 507.357ZM212.683 500.592C212.683 500.449 212.539 500.449 212.251 500.592C212.107 500.592 212.107 500.736 212.251 501.024C212.251 501.168 212.395 501.168 212.683 501.024C212.683 501.024 212.683 500.736 212.683 500.592ZM208.507 493.972C208.363 493.828 208.075 493.828 207.931 493.972V494.116C207.787 494.404 208.075 494.404 208.507 493.972ZM204.187 487.208C204.187 487.064 204.043 486.776 203.755 486.776C203.611 486.776 203.323 486.92 203.323 487.208C203.323 487.496 203.467 487.64 203.755 487.64C204.187 487.64 204.187 487.352 204.187 487.208ZM189.211 489.511C189.067 489.511 188.779 489.511 188.779 489.655C188.779 489.799 188.779 490.086 188.923 490.086C189.067 490.086 189.067 490.086 189.355 489.943C189.643 489.799 189.355 489.799 189.211 489.511ZM219.883 488.503C219.739 488.503 219.451 488.503 219.451 488.503C219.451 488.647 219.451 488.935 219.451 488.935C219.595 489.079 219.883 488.935 219.883 488.935C220.171 488.647 220.171 488.503 219.883 488.503ZM200.587 509.227C200.443 509.227 200.443 509.371 200.443 509.659C200.443 509.947 200.587 509.803 200.875 509.803C201.019 509.803 201.019 509.659 201.019 509.371C201.019 509.227 200.875 509.084 200.587 509.227ZM199.291 501.456C199.147 501.456 199.147 501.6 199.147 501.888C199.147 502.176 199.291 502.032 199.579 502.032C199.723 502.032 199.723 501.888 199.723 501.6C199.723 501.456 199.579 501.456 199.291 501.456ZM198.139 493.54C197.995 493.54 197.995 493.684 197.995 493.972C197.995 494.116 198.139 494.116 198.427 494.116C198.571 494.116 198.571 493.972 198.571 493.684C198.427 493.828 198.283 493.54 198.139 493.54ZM197.851 494.836C197.707 494.836 197.707 494.836 197.851 494.836C197.707 494.98 197.707 495.267 197.851 495.267C197.851 495.267 197.851 495.124 197.851 494.836ZM197.851 490.23C197.707 490.374 197.707 490.374 197.851 490.23C197.707 490.374 197.707 490.662 197.851 490.662C198.139 490.662 198.139 490.374 197.851 490.23C198.139 490.23 198.139 490.23 197.851 490.23ZM207.211 490.806C207.211 491.094 206.923 491.094 207.211 490.806ZM189.211 490.374H188.923V490.518L189.211 490.374C189.355 490.374 189.355 490.374 189.211 490.374ZM191.083 486.201H190.939V486.345L191.083 486.201C191.227 486.201 191.227 486.201 191.083 486.201ZM219.739 492.533C219.451 492.533 219.307 492.677 219.739 492.533C219.739 492.965 219.451 492.677 219.739 492.533C219.739 492.677 219.739 492.677 219.739 492.533ZM216.715 488.072C216.571 488.072 216.283 488.216 216.715 488.072C216.715 488.503 216.571 488.216 216.715 488.072C216.715 488.216 216.715 488.216 216.715 488.072ZM197.419 496.275C197.275 496.275 197.275 496.275 197.419 496.275C197.275 496.707 197.275 496.707 197.419 496.707C197.563 496.707 197.707 496.707 197.419 496.275C197.707 496.563 197.707 496.275 197.419 496.275ZM198.715 491.238C198.427 491.238 198.427 491.238 198.715 491.238C198.571 491.67 198.571 491.67 198.715 491.67C198.859 491.67 198.859 491.67 198.715 491.238ZM208.651 493.972C208.651 493.828 208.507 493.828 208.651 493.972C208.219 493.828 208.219 493.972 208.219 493.972C208.219 494.26 208.507 494.26 208.651 493.972C208.507 494.26 208.507 494.26 208.651 493.972ZM207.355 488.647C207.211 488.935 207.211 488.647 207.355 488.647C207.211 489.079 207.355 489.079 207.355 489.079C207.643 489.079 207.643 488.935 207.355 488.647C207.643 488.647 207.643 488.503 207.355 488.647ZM216.571 515.848C216.427 515.848 216.139 515.992 216.139 516.279C216.139 516.423 216.283 516.711 216.571 516.423C216.715 516.423 217.003 516.279 217.003 515.992C217.003 516.136 216.715 515.848 216.571 515.848ZM214.987 506.925C214.843 506.925 214.555 507.069 214.843 507.357C214.843 507.5 214.987 507.788 215.275 507.5C215.419 507.5 215.707 507.357 215.419 507.069C215.419 506.925 215.275 506.781 214.987 506.925ZM213.547 497.858C213.403 497.858 213.115 498.002 213.403 498.29C213.403 498.434 213.547 498.434 213.835 498.434C213.979 498.434 214.267 498.29 214.267 498.002C213.979 498.002 213.835 497.858 213.547 497.858ZM212.251 488.935C212.107 488.935 211.819 489.079 212.107 489.367C212.107 489.511 212.251 489.799 212.539 489.511C212.683 489.511 212.971 489.367 212.683 489.079C212.683 488.935 212.539 488.935 212.251 488.935ZM223.771 489.943C223.627 489.799 223.339 489.799 223.339 489.799C223.195 489.943 223.195 490.23 223.195 490.23C223.339 490.374 223.627 490.374 223.627 490.374C223.915 490.374 223.915 490.23 223.771 489.943ZM198.715 510.954C198.571 510.954 198.283 510.955 198.283 511.098C198.283 511.242 198.283 511.53 198.427 511.53C198.571 511.53 198.859 511.53 198.859 511.386C199.147 511.386 198.859 511.242 198.715 510.954ZM200.875 502.319C200.731 502.319 200.443 502.319 200.443 502.463C200.443 502.607 200.443 502.895 200.587 502.895C200.731 502.895 201.019 502.895 201.019 502.751C201.307 502.463 201.019 502.319 200.875 502.319ZM202.891 493.397C202.747 493.397 202.459 493.54 202.459 493.828C202.459 494.116 202.459 494.26 202.603 494.26C202.747 494.26 203.035 494.26 203.035 494.116C203.323 493.54 203.179 493.397 202.891 493.397ZM204.187 513.977C204.043 513.977 203.755 513.977 203.755 514.121C203.755 514.265 203.755 514.552 203.899 514.552C204.187 514.552 204.475 514.409 204.187 513.977C204.475 514.121 204.475 513.977 204.187 513.977ZM205.915 505.054C205.771 505.054 205.483 505.054 205.483 505.198C205.483 505.342 205.483 505.63 205.627 505.63C205.771 505.63 206.059 505.63 206.059 505.486C206.347 505.198 206.203 505.198 205.915 505.054ZM207.787 496.131C207.643 496.131 207.355 496.131 207.355 496.275C207.355 496.419 207.355 496.707 207.499 496.707C207.643 496.707 207.931 496.707 207.931 496.563C208.075 496.563 207.787 496.275 207.787 496.131ZM209.515 487.208C209.371 487.208 209.083 487.208 209.083 487.352C209.083 487.496 209.083 487.784 209.227 487.784C209.371 487.784 209.659 487.784 209.659 487.64C209.803 487.64 209.803 487.352 209.515 487.208ZM221.179 500.161C221.035 500.161 220.747 500.305 221.035 500.592C221.035 500.736 221.179 501.024 221.467 500.736C221.611 500.736 221.899 500.592 221.611 500.305C221.611 500.305 221.467 500.161 221.179 500.161ZM219.307 491.238C219.163 491.238 218.875 491.382 219.163 491.67C219.163 491.813 219.307 492.101 219.595 491.813C219.739 491.813 220.027 491.67 219.739 491.382C219.739 491.382 219.451 491.238 219.307 491.238ZM193.963 495.124C193.819 494.98 193.531 495.124 193.531 495.124C193.387 495.267 193.531 495.555 193.531 495.555C193.675 495.699 193.963 495.555 193.963 495.555C194.395 495.411 194.251 495.267 193.963 495.124C194.251 495.124 194.251 495.124 193.963 495.124ZM199.147 487.64C199.003 487.496 198.715 487.64 198.715 487.784C198.571 487.928 198.715 488.216 198.715 488.216C198.859 488.359 199.147 488.216 199.147 488.216C199.291 488.072 199.291 487.784 199.147 487.64ZM204.187 498.434C204.043 498.434 204.043 498.434 203.755 498.578C203.755 498.722 203.755 498.722 203.899 499.009C204.043 499.009 204.043 499.009 204.331 498.865C204.475 498.722 204.187 498.434 204.187 498.434ZM206.779 492.101C206.635 492.101 206.635 492.101 206.347 492.245C206.347 492.389 206.347 492.389 206.491 492.677C206.635 492.677 206.635 492.677 206.923 492.533C207.211 492.389 206.923 492.101 206.779 492.101ZM218.443 497.858C218.299 498.002 218.299 497.858 218.443 497.858C218.299 498.29 218.443 498.29 218.443 498.29C218.731 498.29 218.731 498.002 218.443 497.858C218.875 498.002 218.731 497.858 218.443 497.858ZM218.731 491.094C218.443 491.238 218.443 491.094 218.731 491.094C218.587 491.526 218.731 491.526 218.731 491.526C218.875 491.382 218.875 491.238 218.731 491.094C218.875 491.094 218.875 491.094 218.731 491.094ZM194.683 487.784C194.683 487.64 194.539 487.64 194.251 487.784C194.107 487.784 194.107 487.928 194.251 488.216C194.395 488.216 194.395 488.216 194.683 488.216C194.683 488.072 194.683 487.784 194.683 487.784ZM216.139 488.647C215.995 488.647 215.995 488.647 215.707 488.647C215.707 488.647 215.707 488.791 215.707 489.079C215.851 489.079 215.851 489.079 216.139 489.079C216.283 488.935 216.139 488.647 216.139 488.647Z" fill="white"/>
<path d="M260.203 473.392C242.779 482.315 223.195 486.776 203.755 486.489C182.155 486.345 167.611 480.732 167.611 480.732C167.611 480.732 163.579 466.772 173.083 450.221C189.067 422.589 178.843 437.701 190.651 413.666C195.259 405.319 200.875 397.26 207.211 390.064C211.675 385.027 216.571 380.565 221.611 376.248C229.531 383.444 235.003 381.285 236.443 380.277C236.443 382.148 236.587 384.163 236.875 386.034C238.747 411.939 248.395 438.276 253.579 454.827C253.723 455.69 254.155 456.698 254.443 457.561C257.899 467.492 260.203 473.392 260.203 473.392Z" fill="url(#paint9_linear_2992_165721)"/>
<path d="M329.322 464.469C329.322 464.469 312.186 482.891 295.194 479.149C279.642 475.695 278.49 479.724 271.146 481.451C270.57 481.595 269.706 481.883 268.986 482.027C260.778 484.186 240.762 484.33 229.53 458.712C218.442 433.959 215.274 412.515 221.898 376.392C231.258 384.883 237.162 380.277 237.162 380.277C237.162 379.846 237.162 379.414 237.018 378.982C239.178 382.868 249.114 401.289 258.618 414.386C269.418 429.209 272.874 430.792 288.138 426.763C290.73 426.187 293.034 425.467 295.194 424.892C303.402 422.589 308.73 420.862 308.73 420.862L329.322 464.469Z" fill="url(#paint10_linear_2992_165721)"/>
<path d="M250.699 335.663C248.539 318.105 231.835 317.242 219.019 319.976C212.251 321.415 207.931 324.437 205.195 328.035C200.155 329.906 194.395 327.604 192.091 322.71C191.947 322.279 191.227 322.71 191.515 323.142C193.819 328.035 199.435 330.626 204.619 329.331C202.891 332.065 201.883 335.231 201.595 338.397C201.451 342.139 200.875 349.047 196.843 354.948C192.811 360.849 192.811 371.355 192.811 371.355C212.395 378.55 237.595 368.62 237.595 368.62C237.739 356.963 231.691 353.365 234.571 347.033C234.139 348.472 234.139 350.199 234.427 351.926C235.723 357.682 241.627 362.288 239.035 368.62C238.891 369.052 239.611 369.196 239.899 368.764C241.195 365.742 240.763 363.007 239.323 360.129C238.315 357.97 237.019 356.099 235.867 353.797C234.427 350.199 234.859 346.313 236.875 343.435C245.515 333.648 244.795 327.892 244.795 327.892C247.387 330.05 249.403 332.785 250.699 335.663Z" fill="#1E1E1E"/>
<defs>
<linearGradient id="paint0_linear_2992_165721" x1="182.139" y1="357.826" x2="28054.6" y2="357.826" gradientUnits="userSpaceOnUse">
<stop stop-color="#EDEDED"/>
<stop offset="1" stop-color="#D5D6D7"/>
</linearGradient>
<linearGradient id="paint1_linear_2992_165721" x1="771.686" y1="399.085" x2="1090.03" y2="399.085" gradientUnits="userSpaceOnUse">
<stop stop-color="#E3AA80"/>
<stop offset="1" stop-color="#CE9978"/>
</linearGradient>
<linearGradient id="paint2_linear_2992_165721" x1="949.044" y1="383.296" x2="734.731" y2="1073.99" gradientUnits="userSpaceOnUse">
<stop stop-color="#FFC805"/>
<stop offset="1" stop-color="#FFD669"/>
</linearGradient>
<linearGradient id="paint3_linear_2992_165721" x1="838.565" y1="469.566" x2="700.834" y2="654.458" gradientUnits="userSpaceOnUse">
<stop stop-color="#E3AA80"/>
<stop offset="1" stop-color="#CE9978"/>
</linearGradient>
<linearGradient id="paint4_linear_2992_165721" x1="862.207" y1="432.312" x2="1184.5" y2="432.312" gradientUnits="userSpaceOnUse">
<stop stop-color="#FFC805"/>
<stop offset="1" stop-color="#FFD669"/>
</linearGradient>
<linearGradient id="paint5_linear_2992_165721" x1="909.809" y1="382.477" x2="879.453" y2="248.072" gradientUnits="userSpaceOnUse">
<stop stop-color="#E3AA80"/>
<stop offset="1" stop-color="#CE9978"/>
</linearGradient>
<linearGradient id="paint6_linear_2992_165721" x1="871.558" y1="330.808" x2="989.279" y2="330.808" gradientUnits="userSpaceOnUse">
<stop stop-color="#E3AA80"/>
<stop offset="1" stop-color="#CE9978"/>
</linearGradient>
<linearGradient id="paint7_linear_2992_165721" x1="337.243" y1="389.817" x2="243.815" y2="535.044" gradientUnits="userSpaceOnUse">
<stop stop-color="#BD8075"/>
<stop offset="1" stop-color="#AD7A6C"/>
</linearGradient>
<linearGradient id="paint8_linear_2992_165721" x1="227.805" y1="347.574" x2="318.473" y2="347.574" gradientUnits="userSpaceOnUse">
<stop stop-color="#BD8075"/>
<stop offset="1" stop-color="#AD7A6C"/>
</linearGradient>
<linearGradient id="paint9_linear_2992_165721" x1="181.654" y1="409.834" x2="583.973" y2="819.617" gradientUnits="userSpaceOnUse">
<stop stop-color="#66C6C7"/>
<stop offset="1" stop-color="#00A6A9"/>
</linearGradient>
<linearGradient id="paint10_linear_2992_165721" x1="257.066" y1="437.144" x2="675.059" y2="658.579" gradientUnits="userSpaceOnUse">
<stop stop-color="#66C6C7"/>
<stop offset="1" stop-color="#00A6A9"/>
</linearGradient>
</defs>
</svg>
